# xmcd
# 
# Track frame offsets:
#     150
#     23333
#     39838
#     61408
#     78721
#     98465
#     121249
#     137698
#     157278
#     176987
#     193975
#     212599
#     230436
# 
# Disc length: 3342
# 
# Revision: 4
# Processed by: cddbd v1.5.2PL0 Copyright (c) Steve Scherf et al.
# Submitted via: fre:ac v1.0.17
# 
DISCID=ac0d0c0d
DTITLE=Pop 80er - CD 1
DYEAR=2007
DGENRE=Pop
TTITLE0=Europe - The final countdown
TTITLE1=Men At Work - Down under
TTITLE2=Stars On 45 - Stars on 45
TTITLE3=Modern Talking - Atlantis is calling
TTITLE4=Goombay Dance Band - Sun of Jamaica
TTITLE5=John Farnham - You're the voice
TTITLE6=Taylor Dayne - Tell it to my heart
TTITLE7=Paul Young - Come back and stay
TTITLE8=Desireless - Voyage, voyage
TTITLE9=Giorgio Moroder feat. Paul Engemann - Reach out
TTITLE10=Gazebo - I like Chopin
TTITLE11=Cyndi Lauper - Time after time
TTITLE12=Bonnie Tyler - Total eclipse of the heart
EXTD=YEAR: 2007
EXTT0=
EXTT1=
EXTT2=
EXTT3=
EXTT4=
EXTT5=
EXTT6=
EXTT7=
EXTT8=
EXTT9=
EXTT10=
EXTT11=
EXTT12=
PLAYORDER=
